<svg id="Слой_1" data-name="Слой 1" xmlns="http://www.w3.org/2000/svg" viewBox="0 0 968 405.22"><defs><style>.cls-1{fill:#c62828;}.cls-2{fill:#ad1457;}.cls-3{fill:#6a1b9a;}.cls-4{fill:#4527a0;}.cls-5{fill:#283593;}.cls-6{fill:#1565c0;}.cls-7{fill:#00838f;}.cls-8{fill:none;}</style></defs><title>logo</title><path class="cls-1" d="M388.5,507.5l78-31q-17.5,179.5-35,359h-31Z" transform="translate(-388.5 -430.91)"/><path class="cls-2" d="M456,836V707l29,5c.33,1.67.67,3.33,1,5,1.95-.77,29.57-11.11,53,6,16.37,12,20.19,29.64,21,34v79H534V764c-.49-1.24-6.57-16-22.5-19.5-13.55-3-23.92,4.34-25.5,5.5v86Z" transform="translate(-388.5 -430.91)"/><path class="cls-3" d="M604.5,835.37c29,6.71,72.15-64.76,114.5-154.35q71.09,163.11,106.33,154.35,52.3-13,25.71-404.37s0-.09,0-.09c-.52,0,8.32,326.61-51.4,339.41-14,3-37.87-9.86-80.51-88.82q-53.48,95.55-85.41,88.82Q577.7,758.52,588,432C588.22,425,540.44,820.55,604.5,835.37Z" transform="translate(-388.5 -430.91)"/><path class="cls-4" d="M1012,760c-1.68-36.46-32.27-68.74-71-69s-70.63,31.77-72,70c-1.4,38.94,29.19,72.69,67,75C978,838.57,1013.91,801.48,1012,760Zm-47.5,21.5C964,797.75,951.06,811.92,935,813c-18.46,1.24-34.84-15.24-34-34,.78-17.32,16-32.25,34-31C952.24,749.2,965,764.8,964.5,781.5Z" transform="translate(-388.5 -430.91)"/><path class="cls-5" d="M1015,660q10,87.5,20,175l39,1c-31.72-47.87-22.87-104.57,9.5-128.5,29.28-21.64,68.63-9.71,74-8a51.41,51.41,0,0,0-14-18c-20.75-16.73-54.84-15.34-87,2q-.26-6.75-.5-13.5Z" transform="translate(-388.5 -430.91)"/><path class="cls-6" d="M1167,509l16.5,236.5c-38.32-23.46-81-16.55-99,8-10.55,14.42-13.18,36-5,52,13.69,26.86,58.68,40,104,18l34-6q10-169.5,20-339Zm-46,302c-14.15.22-27-11.34-27-26,0-14.93,13.3-26.82,28-26,14.41.8,26.09,13.58,25,28C1146,800.47,1134.15,810.8,1121,811Z" transform="translate(-388.5 -430.91)"/><path class="cls-7" d="M1243,706c-9.2,23.1,62.62,60.6,52.5,88.5-8.43,23.25-66.17,18.92-66,23,.23,5.28,97,17.15,108-11,10-25.8-59.91-64.9-49-90,9.24-21.25,67.89-12.11,68-15C1356.65,697.66,1253.37,679.94,1243,706Z" transform="translate(-388.5 -430.91)"/><path class="cls-8" d="M1263.5,514.5" transform="translate(-388.5 -430.91)"/></svg>